<!DOCTYPE svg PUBLIC "-//W3C//DTD SVG 1.1//EN" "http://www.w3.org/Graphics/SVG/1.1/DTD/svg11.dtd">
<!-- Uploaded to: SVG Repo, www.svgrepo.com, Transformed by: SVG Repo Mixer Tools -->
<svg width="800px" height="800px" viewBox="0 0 24 24" id="Layer_1" data-name="Layer 1" xmlns="http://www.w3.org/2000/svg" fill="#6ab99f">
<g id="SVGRepo_bgCarrier" stroke-width="0"/>
<g id="SVGRepo_tracerCarrier" stroke-linecap="round" stroke-linejoin="round"/>
<g id="SVGRepo_iconCarrier">
<defs>
<style>.cls-1{fill:none;stroke:#6ab99f;stroke-miterlimit:10;stroke-width:1.91px;}</style>
</defs>
<path class="cls-1" d="M10.09,14.86a1.9,1.9,0,0,1-1.9-1.79.49.49,0,0,1,0-.12,1.91,1.91,0,0,1,3.71-.62A1.84,1.84,0,0,1,12,13,1.9,1.9,0,0,1,10.09,14.86Z"/>
<path class="cls-1" d="M22.5,9.9v8.4L10.89,20.62a1.55,1.55,0,0,0-1.54-1.27,1.58,1.58,0,0,0-1.58,1.57,1.48,1.48,0,0,0,0,.31h0L1.5,22.5V14.1L8,7a1.52,1.52,0,0,0,1.37.81,1.57,1.57,0,0,0,.64-3l3-3.29h1a8.37,8.37,0,0,1,8.4,8.4Z"/>
<path class="cls-1" d="M17.82,19.24h0a1.86,1.86,0,0,0,.84-1.55,1.91,1.91,0,0,0-3.82,0,1.87,1.87,0,0,0,1.58,1.83"/>
<circle class="cls-1" cx="18.2" cy="4.84" r="1.91"/>
<line class="cls-1" x1="22.5" y1="9.14" x2="11.69" y2="11.59"/>
<line class="cls-1" x1="8.88" y1="12.23" x2="1.5" y2="13.91"/>
</g>
</svg>